#N canvas 220 100 866 454 10;
#X obj 100 374 s bela_shiftRegister;
#X obj 62 65 loadbang;
#X msg 24 178 setup 0 1 2 32;
#X obj 258 93 print done shifting;
#X obj 47 109 t b b;
#X obj 162 131 delay 200;
#X obj 229 364 print sending;
#X obj 244 41 r bela_shiftRegisterDone;
#X msg 191 211 1 2 3 4 5 6 7 8 9 10 11 12 13 14 15 16;
#X connect 1 0 4 0;
#X connect 2 0 0 0;
#X connect 4 0 8 0;
#X connect 4 1 2 0;
#X connect 5 0 8 0;
#X connect 7 0 3 0;
#X connect 7 0 5 0;
#X connect 8 0 0 0;
#X connect 8 0 6 0;
