#N canvas 220 100 1147 720 10;
#X obj 24 420 s bela_shiftRegister;
#X obj 63 18 loadbang;
#X obj 48 62 t b b;
#X obj 427 217 r bela_shiftRegisterDone;
#X msg 25 130 setup 6 7 10 8;
#X obj 427 290 tgl 15 0 empty empty empty 17 7 0 10 -262144 -1 -1 0
1;
#X msg 427 332 \$1 0 1 0 1 0 1 0;
#X obj 427 257 delay 500;
#X text 136 129 setup: dataPin clockPin latchPin and number of bits
;
#X text 505 257 With this delay you can set the refresh rate;
#X text 545 354 In this case the first LED flashes on and off and every
second LED is lit.;
#X text 545 394 If you have two or more shift registers then you need
to increase the number of bits in the setup above \, and also increase
the number of value that you send above.;
#X text 545 434 Note that this will always be a multiple of 8;
#X text 545 332 This stores the values that are written to the LEDs.
;
#X text 590 216 This bangs once a message has been sent to the register
;
#X connect 1 0 2 0;
#X connect 2 0 6 0;
#X connect 2 1 4 0;
#X connect 3 0 7 0;
#X connect 4 0 0 0;
#X connect 5 0 6 0;
#X connect 6 0 0 0;
#X connect 7 0 5 0;
