#N canvas 220 100 866 454 10;
#X obj 100 374 s bela_shiftRegister;
#X obj 62 65 loadbang;
#X obj 519 64 print done shifting;
#X obj 47 109 t b b;
#X obj 229 364 print sending;
#X obj 505 12 r bela_shiftRegisterDone;
#X text 150 177 data clock latch and number of bits;
#X msg 24 177 setup 6 7 10 8;
#X obj 574 129 tgl 15 0 empty empty empty 17 7 0 10 -262144 -1 -1 0
1;
#X msg 374 243 \$1 0 1 0 1 0 1 0;
#X msg 186 261 1 1 1 1 0 0 0 0;
#X obj 423 102 delay 500;
#X connect 1 0 3 0;
#X connect 3 0 10 0;
#X connect 3 1 7 0;
#X connect 5 0 2 0;
#X connect 5 0 11 0;
#X connect 7 0 0 0;
#X connect 8 0 9 0;
#X connect 9 0 4 0;
#X connect 10 0 0 0;
#X connect 11 0 8 0;
